<mxfile host="app.diagrams.net" modified="2024-01-01T15:53:36.063Z" agent="Mozilla/5.0 (Windows NT 10.0; Win64; x64; rv:121.0) Gecko/20100101 Firefox/121.0" etag="1RlnGBsrAfcxcnsOnimj" version="22.1.16" type="github">
  <diagram id="C5RBs43oDa-KdzZeNtuy" name="Page-1">
    <mxGraphModel dx="1687" dy="911" grid="1" gridSize="10" guides="1" tooltips="1" connect="1" arrows="1" fold="1" page="1" pageScale="1" pageWidth="583" pageHeight="827" math="0" shadow="0">
      <root>
        <mxCell id="WIyWlLk6GJQsqaUBKTNV-0" />
        <mxCell id="WIyWlLk6GJQsqaUBKTNV-1" parent="WIyWlLk6GJQsqaUBKTNV-0" />
        <mxCell id="n9s_sSae4hV56CjeT8IY-0" value="" style="rounded=1;whiteSpace=wrap;html=1;fillColor=none;strokeWidth=2;comic=0;" parent="WIyWlLk6GJQsqaUBKTNV-1" vertex="1">
          <mxGeometry x="330" y="320" width="1020" height="890" as="geometry" />
        </mxCell>
        <mxCell id="n9s_sSae4hV56CjeT8IY-1" value="&lt;font style=&quot;font-size: 14px;&quot;&gt;toPosition&lt;br&gt;&lt;/font&gt;" style="rounded=0;whiteSpace=wrap;html=1;" parent="WIyWlLk6GJQsqaUBKTNV-1" vertex="1">
          <mxGeometry x="260" y="450" width="120" height="60" as="geometry" />
        </mxCell>
        <mxCell id="n9s_sSae4hV56CjeT8IY-2" value="&lt;div style=&quot;font-size: 15px;&quot;&gt;&lt;font style=&quot;font-size: 15px;&quot;&gt;&lt;b&gt;&lt;font style=&quot;font-size: 15px;&quot;&gt;Spielstein bewegen&lt;br&gt;&lt;/font&gt;&lt;/b&gt;&lt;/font&gt;&lt;/div&gt;&lt;div style=&quot;font-size: 15px;&quot;&gt;&lt;font style=&quot;font-size: 15px;&quot;&gt;&lt;b&gt;&lt;font style=&quot;font-size: 15px;&quot;&gt;toPosition: Position&lt;font style=&quot;font-size: 15px;&quot;&gt;&lt;br&gt;&lt;/font&gt;&lt;/font&gt;&lt;/b&gt;&lt;/font&gt;&lt;/div&gt;" style="text;html=1;strokeColor=none;fillColor=none;align=center;verticalAlign=middle;whiteSpace=wrap;rounded=0;" parent="WIyWlLk6GJQsqaUBKTNV-1" vertex="1">
          <mxGeometry x="380" y="330" width="170" height="70" as="geometry" />
        </mxCell>
        <mxCell id="n9s_sSae4hV56CjeT8IY-5" value="" style="endArrow=classic;html=1;rounded=0;exitX=1;exitY=0.5;exitDx=0;exitDy=0;" parent="WIyWlLk6GJQsqaUBKTNV-1" source="n9s_sSae4hV56CjeT8IY-1" target="n9s_sSae4hV56CjeT8IY-6" edge="1">
          <mxGeometry width="50" height="50" relative="1" as="geometry">
            <mxPoint x="620" y="510" as="sourcePoint" />
            <mxPoint x="430" y="480" as="targetPoint" />
          </mxGeometry>
        </mxCell>
        <mxCell id="n9s_sSae4hV56CjeT8IY-8" style="edgeStyle=orthogonalEdgeStyle;rounded=0;orthogonalLoop=1;jettySize=auto;html=1;exitX=0.5;exitY=1;exitDx=0;exitDy=0;" parent="WIyWlLk6GJQsqaUBKTNV-1" source="n9s_sSae4hV56CjeT8IY-6" target="n9s_sSae4hV56CjeT8IY-9" edge="1">
          <mxGeometry relative="1" as="geometry">
            <mxPoint x="475.3103448275863" y="560.0000000000001" as="targetPoint" />
          </mxGeometry>
        </mxCell>
        <mxCell id="n9s_sSae4hV56CjeT8IY-10" style="edgeStyle=orthogonalEdgeStyle;rounded=0;orthogonalLoop=1;jettySize=auto;html=1;exitX=1;exitY=0.5;exitDx=0;exitDy=0;entryX=0;entryY=0.5;entryDx=0;entryDy=0;" parent="WIyWlLk6GJQsqaUBKTNV-1" source="n9s_sSae4hV56CjeT8IY-6" target="n9s_sSae4hV56CjeT8IY-13" edge="1">
          <mxGeometry relative="1" as="geometry">
            <mxPoint x="570" y="480.0344827586207" as="targetPoint" />
          </mxGeometry>
        </mxCell>
        <mxCell id="n9s_sSae4hV56CjeT8IY-6" value="" style="rhombus;whiteSpace=wrap;html=1;" parent="WIyWlLk6GJQsqaUBKTNV-1" vertex="1">
          <mxGeometry x="450" y="455" width="50" height="50" as="geometry" />
        </mxCell>
        <mxCell id="n9s_sSae4hV56CjeT8IY-7" value="Ist die Zielposition NULL ?" style="text;html=1;align=center;verticalAlign=middle;resizable=0;points=[];autosize=1;strokeColor=none;fillColor=none;" parent="WIyWlLk6GJQsqaUBKTNV-1" vertex="1">
          <mxGeometry x="395" y="425" width="160" height="30" as="geometry" />
        </mxCell>
        <mxCell id="bhBOAPFcjr5mr_RWAnfO-3" style="edgeStyle=orthogonalEdgeStyle;rounded=0;orthogonalLoop=1;jettySize=auto;html=1;exitX=0.5;exitY=1;exitDx=0;exitDy=0;entryX=1;entryY=0.5;entryDx=0;entryDy=0;" edge="1" parent="WIyWlLk6GJQsqaUBKTNV-1" source="n9s_sSae4hV56CjeT8IY-9" target="bhBOAPFcjr5mr_RWAnfO-0">
          <mxGeometry relative="1" as="geometry" />
        </mxCell>
        <mxCell id="n9s_sSae4hV56CjeT8IY-9" value="Fehlermeldung: Zielposition ist NULL" style="rounded=1;whiteSpace=wrap;html=1;" parent="WIyWlLk6GJQsqaUBKTNV-1" vertex="1">
          <mxGeometry x="417.5" y="555" width="115" height="55" as="geometry" />
        </mxCell>
        <mxCell id="n9s_sSae4hV56CjeT8IY-11" style="edgeStyle=orthogonalEdgeStyle;rounded=0;orthogonalLoop=1;jettySize=auto;html=1;exitX=0.5;exitY=1;exitDx=0;exitDy=0;" parent="WIyWlLk6GJQsqaUBKTNV-1" source="n9s_sSae4hV56CjeT8IY-13" target="n9s_sSae4hV56CjeT8IY-14" edge="1">
          <mxGeometry relative="1" as="geometry">
            <mxPoint x="627.8103448275863" y="560.0000000000001" as="targetPoint" />
          </mxGeometry>
        </mxCell>
        <mxCell id="n9s_sSae4hV56CjeT8IY-12" style="edgeStyle=orthogonalEdgeStyle;rounded=0;orthogonalLoop=1;jettySize=auto;html=1;exitX=1;exitY=0.5;exitDx=0;exitDy=0;entryX=0;entryY=0.5;entryDx=0;entryDy=0;" parent="WIyWlLk6GJQsqaUBKTNV-1" target="n9s_sSae4hV56CjeT8IY-19" edge="1">
          <mxGeometry relative="1" as="geometry">
            <mxPoint x="722.5" y="479.6944827586207" as="targetPoint" />
            <mxPoint x="652.5" y="479.66000000000014" as="sourcePoint" />
          </mxGeometry>
        </mxCell>
        <mxCell id="n9s_sSae4hV56CjeT8IY-13" value="" style="rhombus;whiteSpace=wrap;html=1;" parent="WIyWlLk6GJQsqaUBKTNV-1" vertex="1">
          <mxGeometry x="602.5" y="455" width="50" height="50" as="geometry" />
        </mxCell>
        <mxCell id="bhBOAPFcjr5mr_RWAnfO-7" style="edgeStyle=orthogonalEdgeStyle;rounded=0;orthogonalLoop=1;jettySize=auto;html=1;exitX=0.5;exitY=1;exitDx=0;exitDy=0;entryX=1;entryY=0.5;entryDx=0;entryDy=0;" edge="1" parent="WIyWlLk6GJQsqaUBKTNV-1" source="n9s_sSae4hV56CjeT8IY-14" target="bhBOAPFcjr5mr_RWAnfO-0">
          <mxGeometry relative="1" as="geometry" />
        </mxCell>
        <mxCell id="n9s_sSae4hV56CjeT8IY-14" value="Fehlermeldung: Zielposition ist nicht auf dem Spielbrett" style="rounded=1;whiteSpace=wrap;html=1;" parent="WIyWlLk6GJQsqaUBKTNV-1" vertex="1">
          <mxGeometry x="570" y="555" width="115" height="55" as="geometry" />
        </mxCell>
        <mxCell id="n9s_sSae4hV56CjeT8IY-17" style="edgeStyle=orthogonalEdgeStyle;rounded=0;orthogonalLoop=1;jettySize=auto;html=1;exitX=0.5;exitY=1;exitDx=0;exitDy=0;" parent="WIyWlLk6GJQsqaUBKTNV-1" source="n9s_sSae4hV56CjeT8IY-19" target="n9s_sSae4hV56CjeT8IY-20" edge="1">
          <mxGeometry relative="1" as="geometry">
            <mxPoint x="777.8103448275863" y="560.0000000000001" as="targetPoint" />
          </mxGeometry>
        </mxCell>
        <mxCell id="n9s_sSae4hV56CjeT8IY-18" style="edgeStyle=orthogonalEdgeStyle;rounded=0;orthogonalLoop=1;jettySize=auto;html=1;exitX=1;exitY=0.5;exitDx=0;exitDy=0;entryX=0;entryY=0.5;entryDx=0;entryDy=0;" parent="WIyWlLk6GJQsqaUBKTNV-1" source="n9s_sSae4hV56CjeT8IY-19" target="n9s_sSae4hV56CjeT8IY-23" edge="1">
          <mxGeometry relative="1" as="geometry">
            <mxPoint x="872.5" y="480.0344827586207" as="targetPoint" />
          </mxGeometry>
        </mxCell>
        <mxCell id="n9s_sSae4hV56CjeT8IY-19" value="" style="rhombus;whiteSpace=wrap;html=1;" parent="WIyWlLk6GJQsqaUBKTNV-1" vertex="1">
          <mxGeometry x="752.5" y="455" width="50" height="50" as="geometry" />
        </mxCell>
        <mxCell id="bhBOAPFcjr5mr_RWAnfO-5" style="edgeStyle=orthogonalEdgeStyle;rounded=0;orthogonalLoop=1;jettySize=auto;html=1;exitX=0.5;exitY=1;exitDx=0;exitDy=0;entryX=1;entryY=0.5;entryDx=0;entryDy=0;" edge="1" parent="WIyWlLk6GJQsqaUBKTNV-1" source="n9s_sSae4hV56CjeT8IY-20" target="bhBOAPFcjr5mr_RWAnfO-0">
          <mxGeometry relative="1" as="geometry" />
        </mxCell>
        <mxCell id="n9s_sSae4hV56CjeT8IY-20" value="Fehlermeldung: Start- und Zielposition sind gleich" style="rounded=1;whiteSpace=wrap;html=1;" parent="WIyWlLk6GJQsqaUBKTNV-1" vertex="1">
          <mxGeometry x="720" y="555" width="115" height="55" as="geometry" />
        </mxCell>
        <mxCell id="n9s_sSae4hV56CjeT8IY-21" style="edgeStyle=orthogonalEdgeStyle;rounded=0;orthogonalLoop=1;jettySize=auto;html=1;exitX=0.5;exitY=1;exitDx=0;exitDy=0;" parent="WIyWlLk6GJQsqaUBKTNV-1" source="n9s_sSae4hV56CjeT8IY-23" target="n9s_sSae4hV56CjeT8IY-24" edge="1">
          <mxGeometry relative="1" as="geometry">
            <mxPoint x="927.8103448275863" y="560.0000000000001" as="targetPoint" />
          </mxGeometry>
        </mxCell>
        <mxCell id="n9s_sSae4hV56CjeT8IY-22" style="edgeStyle=orthogonalEdgeStyle;rounded=0;orthogonalLoop=1;jettySize=auto;html=1;exitX=1;exitY=0.5;exitDx=0;exitDy=0;" parent="WIyWlLk6GJQsqaUBKTNV-1" source="n9s_sSae4hV56CjeT8IY-23" edge="1">
          <mxGeometry relative="1" as="geometry">
            <mxPoint x="1022.5" y="480.0344827586207" as="targetPoint" />
          </mxGeometry>
        </mxCell>
        <mxCell id="n9s_sSae4hV56CjeT8IY-23" value="" style="rhombus;whiteSpace=wrap;html=1;" parent="WIyWlLk6GJQsqaUBKTNV-1" vertex="1">
          <mxGeometry x="902.5" y="455" width="50" height="50" as="geometry" />
        </mxCell>
        <mxCell id="bhBOAPFcjr5mr_RWAnfO-6" style="edgeStyle=orthogonalEdgeStyle;rounded=0;orthogonalLoop=1;jettySize=auto;html=1;exitX=0.5;exitY=1;exitDx=0;exitDy=0;entryX=1;entryY=0.5;entryDx=0;entryDy=0;" edge="1" parent="WIyWlLk6GJQsqaUBKTNV-1" source="n9s_sSae4hV56CjeT8IY-24" target="bhBOAPFcjr5mr_RWAnfO-0">
          <mxGeometry relative="1" as="geometry" />
        </mxCell>
        <mxCell id="n9s_sSae4hV56CjeT8IY-24" value="Fehlermeldung: Zielposition ist belegt" style="rounded=1;whiteSpace=wrap;html=1;" parent="WIyWlLk6GJQsqaUBKTNV-1" vertex="1">
          <mxGeometry x="870" y="555" width="115" height="55" as="geometry" />
        </mxCell>
        <mxCell id="n9s_sSae4hV56CjeT8IY-25" value="Ja" style="text;html=1;align=center;verticalAlign=middle;resizable=0;points=[];autosize=1;strokeColor=none;fillColor=none;" parent="WIyWlLk6GJQsqaUBKTNV-1" vertex="1">
          <mxGeometry x="470" y="510" width="40" height="30" as="geometry" />
        </mxCell>
        <mxCell id="n9s_sSae4hV56CjeT8IY-26" value="Nein" style="text;html=1;align=center;verticalAlign=middle;resizable=0;points=[];autosize=1;strokeColor=none;fillColor=none;" parent="WIyWlLk6GJQsqaUBKTNV-1" vertex="1">
          <mxGeometry x="500" y="475" width="50" height="30" as="geometry" />
        </mxCell>
        <mxCell id="n9s_sSae4hV56CjeT8IY-29" value="&lt;div&gt;Zielposition ist nicht&amp;nbsp;&lt;/div&gt;&lt;div&gt;auf dem Spielbrett?&lt;/div&gt;" style="text;html=1;align=center;verticalAlign=middle;resizable=0;points=[];autosize=1;strokeColor=none;fillColor=none;" parent="WIyWlLk6GJQsqaUBKTNV-1" vertex="1">
          <mxGeometry x="562.5" y="415" width="130" height="40" as="geometry" />
        </mxCell>
        <mxCell id="n9s_sSae4hV56CjeT8IY-30" value="Ja" style="text;html=1;align=center;verticalAlign=middle;resizable=0;points=[];autosize=1;strokeColor=none;fillColor=none;" parent="WIyWlLk6GJQsqaUBKTNV-1" vertex="1">
          <mxGeometry x="620" y="510" width="40" height="30" as="geometry" />
        </mxCell>
        <mxCell id="n9s_sSae4hV56CjeT8IY-31" value="Nein" style="text;html=1;align=center;verticalAlign=middle;resizable=0;points=[];autosize=1;strokeColor=none;fillColor=none;" parent="WIyWlLk6GJQsqaUBKTNV-1" vertex="1">
          <mxGeometry x="650" y="475" width="50" height="30" as="geometry" />
        </mxCell>
        <mxCell id="n9s_sSae4hV56CjeT8IY-32" value="Ja" style="text;html=1;align=center;verticalAlign=middle;resizable=0;points=[];autosize=1;strokeColor=none;fillColor=none;" parent="WIyWlLk6GJQsqaUBKTNV-1" vertex="1">
          <mxGeometry x="770" y="510" width="40" height="30" as="geometry" />
        </mxCell>
        <mxCell id="n9s_sSae4hV56CjeT8IY-33" value="Nein" style="text;html=1;align=center;verticalAlign=middle;resizable=0;points=[];autosize=1;strokeColor=none;fillColor=none;" parent="WIyWlLk6GJQsqaUBKTNV-1" vertex="1">
          <mxGeometry x="800" y="475" width="50" height="30" as="geometry" />
        </mxCell>
        <mxCell id="n9s_sSae4hV56CjeT8IY-34" value="Ja" style="text;html=1;align=center;verticalAlign=middle;resizable=0;points=[];autosize=1;strokeColor=none;fillColor=none;" parent="WIyWlLk6GJQsqaUBKTNV-1" vertex="1">
          <mxGeometry x="920" y="510" width="40" height="30" as="geometry" />
        </mxCell>
        <mxCell id="n9s_sSae4hV56CjeT8IY-35" value="Nein" style="text;html=1;align=center;verticalAlign=middle;resizable=0;points=[];autosize=1;strokeColor=none;fillColor=none;" parent="WIyWlLk6GJQsqaUBKTNV-1" vertex="1">
          <mxGeometry x="950" y="475" width="50" height="30" as="geometry" />
        </mxCell>
        <mxCell id="n9s_sSae4hV56CjeT8IY-45" style="edgeStyle=orthogonalEdgeStyle;rounded=0;orthogonalLoop=1;jettySize=auto;html=1;exitX=1;exitY=0.5;exitDx=0;exitDy=0;entryX=0.5;entryY=0;entryDx=0;entryDy=0;" parent="WIyWlLk6GJQsqaUBKTNV-1" source="n9s_sSae4hV56CjeT8IY-38" target="n9s_sSae4hV56CjeT8IY-43" edge="1">
          <mxGeometry relative="1" as="geometry" />
        </mxCell>
        <mxCell id="n9s_sSae4hV56CjeT8IY-38" value="Distanz zwischen Start- und Zielposition berechnen" style="rounded=1;whiteSpace=wrap;html=1;" parent="WIyWlLk6GJQsqaUBKTNV-1" vertex="1">
          <mxGeometry x="1020" y="450" width="120" height="60" as="geometry" />
        </mxCell>
        <mxCell id="n9s_sSae4hV56CjeT8IY-40" value="&lt;div&gt;Zielposition ist gleich&amp;nbsp;&lt;/div&gt;&lt;div&gt;der Startposition?&lt;/div&gt;" style="text;html=1;align=center;verticalAlign=middle;resizable=0;points=[];autosize=1;strokeColor=none;fillColor=none;" parent="WIyWlLk6GJQsqaUBKTNV-1" vertex="1">
          <mxGeometry x="712.5" y="415" width="130" height="40" as="geometry" />
        </mxCell>
        <mxCell id="n9s_sSae4hV56CjeT8IY-41" value="Zielposition besetzt?" style="text;html=1;align=center;verticalAlign=middle;resizable=0;points=[];autosize=1;strokeColor=none;fillColor=none;" parent="WIyWlLk6GJQsqaUBKTNV-1" vertex="1">
          <mxGeometry x="862.5" y="425" width="130" height="30" as="geometry" />
        </mxCell>
        <mxCell id="n9s_sSae4hV56CjeT8IY-109" style="edgeStyle=orthogonalEdgeStyle;rounded=0;orthogonalLoop=1;jettySize=auto;html=1;exitX=0.5;exitY=1;exitDx=0;exitDy=0;entryX=1;entryY=0.5;entryDx=0;entryDy=0;" parent="WIyWlLk6GJQsqaUBKTNV-1" source="n9s_sSae4hV56CjeT8IY-43" target="n9s_sSae4hV56CjeT8IY-103" edge="1">
          <mxGeometry relative="1" as="geometry" />
        </mxCell>
        <mxCell id="n9s_sSae4hV56CjeT8IY-43" value="" style="rhombus;whiteSpace=wrap;html=1;" parent="WIyWlLk6GJQsqaUBKTNV-1" vertex="1">
          <mxGeometry x="1163.75" y="733" width="70" height="62" as="geometry" />
        </mxCell>
        <mxCell id="n9s_sSae4hV56CjeT8IY-44" value="&lt;font style=&quot;font-size: 13px;&quot;&gt;switch &amp;lt;Distanz&amp;gt;&lt;/font&gt;" style="text;html=1;align=center;verticalAlign=middle;resizable=0;points=[];autosize=1;strokeColor=none;fillColor=none;" parent="WIyWlLk6GJQsqaUBKTNV-1" vertex="1">
          <mxGeometry x="1203.75" y="720" width="120" height="30" as="geometry" />
        </mxCell>
        <mxCell id="n9s_sSae4hV56CjeT8IY-47" value="" style="endArrow=classic;html=1;rounded=0;entryX=1;entryY=0.5;entryDx=0;entryDy=0;" parent="WIyWlLk6GJQsqaUBKTNV-1" target="n9s_sSae4hV56CjeT8IY-48" edge="1">
          <mxGeometry width="50" height="50" relative="1" as="geometry">
            <mxPoint x="1198.75" y="847.5" as="sourcePoint" />
            <mxPoint x="1016.25" y="842.5" as="targetPoint" />
          </mxGeometry>
        </mxCell>
        <mxCell id="n9s_sSae4hV56CjeT8IY-51" style="edgeStyle=orthogonalEdgeStyle;rounded=0;orthogonalLoop=1;jettySize=auto;html=1;exitX=0;exitY=0.5;exitDx=0;exitDy=0;" parent="WIyWlLk6GJQsqaUBKTNV-1" source="n9s_sSae4hV56CjeT8IY-48" edge="1">
          <mxGeometry relative="1" as="geometry">
            <mxPoint x="916.2499999999998" y="847.7068965517242" as="targetPoint" />
          </mxGeometry>
        </mxCell>
        <mxCell id="n9s_sSae4hV56CjeT8IY-101" style="edgeStyle=orthogonalEdgeStyle;rounded=0;orthogonalLoop=1;jettySize=auto;html=1;exitX=0.5;exitY=0;exitDx=0;exitDy=0;entryX=0.483;entryY=0.993;entryDx=0;entryDy=0;entryPerimeter=0;" parent="WIyWlLk6GJQsqaUBKTNV-1" source="n9s_sSae4hV56CjeT8IY-48" target="n9s_sSae4hV56CjeT8IY-66" edge="1">
          <mxGeometry relative="1" as="geometry" />
        </mxCell>
        <mxCell id="n9s_sSae4hV56CjeT8IY-48" value="" style="rhombus;whiteSpace=wrap;html=1;" parent="WIyWlLk6GJQsqaUBKTNV-1" vertex="1">
          <mxGeometry x="988.75" y="822.5" width="50" height="50" as="geometry" />
        </mxCell>
        <mxCell id="n9s_sSae4hV56CjeT8IY-49" value="Distanz = 1" style="text;html=1;align=center;verticalAlign=middle;resizable=0;points=[];autosize=1;strokeColor=none;fillColor=none;" parent="WIyWlLk6GJQsqaUBKTNV-1" vertex="1">
          <mxGeometry x="1106.25" y="822.5" width="80" height="30" as="geometry" />
        </mxCell>
        <mxCell id="n9s_sSae4hV56CjeT8IY-50" value="Token ist CROWN?" style="text;html=1;align=center;verticalAlign=middle;resizable=0;points=[];autosize=1;strokeColor=none;fillColor=none;" parent="WIyWlLk6GJQsqaUBKTNV-1" vertex="1">
          <mxGeometry x="943.75" y="867" width="130" height="30" as="geometry" />
        </mxCell>
        <mxCell id="n9s_sSae4hV56CjeT8IY-52" value="Ja" style="text;html=1;align=center;verticalAlign=middle;resizable=0;points=[];autosize=1;strokeColor=none;fillColor=none;" parent="WIyWlLk6GJQsqaUBKTNV-1" vertex="1">
          <mxGeometry x="926.25" y="822.5" width="40" height="30" as="geometry" />
        </mxCell>
        <mxCell id="bhBOAPFcjr5mr_RWAnfO-13" style="edgeStyle=orthogonalEdgeStyle;rounded=0;orthogonalLoop=1;jettySize=auto;html=1;exitX=0;exitY=0.5;exitDx=0;exitDy=0;entryX=1;entryY=0.5;entryDx=0;entryDy=0;" edge="1" parent="WIyWlLk6GJQsqaUBKTNV-1" source="n9s_sSae4hV56CjeT8IY-54" target="bhBOAPFcjr5mr_RWAnfO-12">
          <mxGeometry relative="1" as="geometry" />
        </mxCell>
        <mxCell id="n9s_sSae4hV56CjeT8IY-54" value="Spielzug &quot;Ziehen&quot;" style="rounded=1;whiteSpace=wrap;html=1;" parent="WIyWlLk6GJQsqaUBKTNV-1" vertex="1">
          <mxGeometry x="816.25" y="825" width="100" height="45" as="geometry" />
        </mxCell>
        <mxCell id="n9s_sSae4hV56CjeT8IY-69" style="edgeStyle=orthogonalEdgeStyle;rounded=0;orthogonalLoop=1;jettySize=auto;html=1;exitX=0;exitY=0.5;exitDx=0;exitDy=0;entryX=1;entryY=0.5;entryDx=0;entryDy=0;" parent="WIyWlLk6GJQsqaUBKTNV-1" source="n9s_sSae4hV56CjeT8IY-66" target="n9s_sSae4hV56CjeT8IY-68" edge="1">
          <mxGeometry relative="1" as="geometry" />
        </mxCell>
        <mxCell id="n9s_sSae4hV56CjeT8IY-66" value="Fehlermeldung: Nur CROWN darf ziehen" style="rounded=1;whiteSpace=wrap;html=1;" parent="WIyWlLk6GJQsqaUBKTNV-1" vertex="1">
          <mxGeometry x="956.25" y="720" width="117.5" height="50" as="geometry" />
        </mxCell>
        <mxCell id="n9s_sSae4hV56CjeT8IY-67" value="Nein" style="text;html=1;align=center;verticalAlign=middle;resizable=0;points=[];autosize=1;strokeColor=none;fillColor=none;" parent="WIyWlLk6GJQsqaUBKTNV-1" vertex="1">
          <mxGeometry x="1008.75" y="790" width="50" height="30" as="geometry" />
        </mxCell>
        <mxCell id="bhBOAPFcjr5mr_RWAnfO-10" style="edgeStyle=orthogonalEdgeStyle;rounded=0;orthogonalLoop=1;jettySize=auto;html=1;exitX=0;exitY=0.5;exitDx=0;exitDy=0;entryX=1;entryY=0.75;entryDx=0;entryDy=0;" edge="1" parent="WIyWlLk6GJQsqaUBKTNV-1" source="n9s_sSae4hV56CjeT8IY-68" target="bhBOAPFcjr5mr_RWAnfO-0">
          <mxGeometry relative="1" as="geometry" />
        </mxCell>
        <mxCell id="n9s_sSae4hV56CjeT8IY-68" value="Spielzug fehlgeschlagen" style="rounded=1;whiteSpace=wrap;html=1;" parent="WIyWlLk6GJQsqaUBKTNV-1" vertex="1">
          <mxGeometry x="742.75" y="720" width="137" height="50" as="geometry" />
        </mxCell>
        <mxCell id="n9s_sSae4hV56CjeT8IY-85" value="" style="endArrow=classic;html=1;rounded=0;entryX=1;entryY=0.5;entryDx=0;entryDy=0;" parent="WIyWlLk6GJQsqaUBKTNV-1" target="n9s_sSae4hV56CjeT8IY-88" edge="1">
          <mxGeometry width="50" height="50" relative="1" as="geometry">
            <mxPoint x="1198.75" y="985" as="sourcePoint" />
            <mxPoint x="1023.75" y="980" as="targetPoint" />
          </mxGeometry>
        </mxCell>
        <mxCell id="n9s_sSae4hV56CjeT8IY-87" style="edgeStyle=orthogonalEdgeStyle;rounded=0;orthogonalLoop=1;jettySize=auto;html=1;exitX=0.5;exitY=1;exitDx=0;exitDy=0;" parent="WIyWlLk6GJQsqaUBKTNV-1" source="n9s_sSae4hV56CjeT8IY-88" edge="1">
          <mxGeometry relative="1" as="geometry">
            <mxPoint x="1021.1293103448277" y="1050" as="targetPoint" />
          </mxGeometry>
        </mxCell>
        <mxCell id="n9s_sSae4hV56CjeT8IY-110" style="edgeStyle=orthogonalEdgeStyle;rounded=0;orthogonalLoop=1;jettySize=auto;html=1;exitX=0.5;exitY=0;exitDx=0;exitDy=0;entryX=1;entryY=0.5;entryDx=0;entryDy=0;" parent="WIyWlLk6GJQsqaUBKTNV-1" source="n9s_sSae4hV56CjeT8IY-88" target="n9s_sSae4hV56CjeT8IY-48" edge="1">
          <mxGeometry relative="1" as="geometry">
            <Array as="points">
              <mxPoint x="1021.75" y="916" />
              <mxPoint x="1073.75" y="916" />
              <mxPoint x="1073.75" y="848" />
            </Array>
          </mxGeometry>
        </mxCell>
        <mxCell id="n9s_sSae4hV56CjeT8IY-88" value="" style="rhombus;whiteSpace=wrap;html=1;" parent="WIyWlLk6GJQsqaUBKTNV-1" vertex="1">
          <mxGeometry x="996.25" y="960" width="50" height="50" as="geometry" />
        </mxCell>
        <mxCell id="n9s_sSae4hV56CjeT8IY-89" value="Distanz = 2" style="text;html=1;align=center;verticalAlign=middle;resizable=0;points=[];autosize=1;strokeColor=none;fillColor=none;" parent="WIyWlLk6GJQsqaUBKTNV-1" vertex="1">
          <mxGeometry x="1106.25" y="960" width="80" height="30" as="geometry" />
        </mxCell>
        <mxCell id="n9s_sSae4hV56CjeT8IY-90" value="&lt;font style=&quot;font-size: 13px;&quot;&gt;Start- und Zielposition sind diagonal?&lt;/font&gt;" style="text;html=1;align=center;verticalAlign=middle;resizable=0;points=[];autosize=1;strokeColor=none;fillColor=none;" parent="WIyWlLk6GJQsqaUBKTNV-1" vertex="1">
          <mxGeometry x="760" y="970" width="240" height="30" as="geometry" />
        </mxCell>
        <mxCell id="n9s_sSae4hV56CjeT8IY-91" value="Ja" style="text;html=1;align=center;verticalAlign=middle;resizable=0;points=[];autosize=1;strokeColor=none;fillColor=none;" parent="WIyWlLk6GJQsqaUBKTNV-1" vertex="1">
          <mxGeometry x="1011.25" y="930" width="40" height="30" as="geometry" />
        </mxCell>
        <mxCell id="bhBOAPFcjr5mr_RWAnfO-14" style="edgeStyle=orthogonalEdgeStyle;rounded=0;orthogonalLoop=1;jettySize=auto;html=1;exitX=0;exitY=0.5;exitDx=0;exitDy=0;entryX=1;entryY=0.5;entryDx=0;entryDy=0;" edge="1" parent="WIyWlLk6GJQsqaUBKTNV-1" source="n9s_sSae4hV56CjeT8IY-95" target="bhBOAPFcjr5mr_RWAnfO-1">
          <mxGeometry relative="1" as="geometry" />
        </mxCell>
        <mxCell id="n9s_sSae4hV56CjeT8IY-95" value="Spielzug &quot;Springen&quot;" style="rounded=1;whiteSpace=wrap;html=1;" parent="WIyWlLk6GJQsqaUBKTNV-1" vertex="1">
          <mxGeometry x="973.75" y="1050" width="97.5" height="50" as="geometry" />
        </mxCell>
        <mxCell id="n9s_sSae4hV56CjeT8IY-96" value="Nein" style="text;html=1;align=center;verticalAlign=middle;resizable=0;points=[];autosize=1;strokeColor=none;fillColor=none;" parent="WIyWlLk6GJQsqaUBKTNV-1" vertex="1">
          <mxGeometry x="1013.75" y="1010" width="50" height="30" as="geometry" />
        </mxCell>
        <mxCell id="n9s_sSae4hV56CjeT8IY-102" value="default" style="text;html=1;align=center;verticalAlign=middle;resizable=0;points=[];autosize=1;strokeColor=none;fillColor=none;" parent="WIyWlLk6GJQsqaUBKTNV-1" vertex="1">
          <mxGeometry x="1133.75" y="1127.5" width="60" height="30" as="geometry" />
        </mxCell>
        <mxCell id="n9s_sSae4hV56CjeT8IY-105" style="edgeStyle=orthogonalEdgeStyle;rounded=0;orthogonalLoop=1;jettySize=auto;html=1;exitX=0;exitY=0.5;exitDx=0;exitDy=0;entryX=1;entryY=0.5;entryDx=0;entryDy=0;" parent="WIyWlLk6GJQsqaUBKTNV-1" source="n9s_sSae4hV56CjeT8IY-103" target="n9s_sSae4hV56CjeT8IY-104" edge="1">
          <mxGeometry relative="1" as="geometry" />
        </mxCell>
        <mxCell id="n9s_sSae4hV56CjeT8IY-103" value="Fehlermeldung: Token kann nicht &amp;lt;Distanz&amp;gt; weit bewegt werden" style="rounded=1;whiteSpace=wrap;html=1;" parent="WIyWlLk6GJQsqaUBKTNV-1" vertex="1">
          <mxGeometry x="873.75" y="1127.5" width="200" height="60" as="geometry" />
        </mxCell>
        <mxCell id="bhBOAPFcjr5mr_RWAnfO-11" style="edgeStyle=orthogonalEdgeStyle;rounded=0;orthogonalLoop=1;jettySize=auto;html=1;exitX=0;exitY=0.5;exitDx=0;exitDy=0;entryX=1;entryY=0.25;entryDx=0;entryDy=0;" edge="1" parent="WIyWlLk6GJQsqaUBKTNV-1" source="n9s_sSae4hV56CjeT8IY-104" target="bhBOAPFcjr5mr_RWAnfO-0">
          <mxGeometry relative="1" as="geometry" />
        </mxCell>
        <mxCell id="n9s_sSae4hV56CjeT8IY-104" value="Spielzug fehlgeschlagen" style="rounded=1;whiteSpace=wrap;html=1;" parent="WIyWlLk6GJQsqaUBKTNV-1" vertex="1">
          <mxGeometry x="638.75" y="1132.5" width="137" height="50" as="geometry" />
        </mxCell>
        <mxCell id="bhBOAPFcjr5mr_RWAnfO-0" value="&lt;font style=&quot;font-size: 16px;&quot;&gt;false&lt;/font&gt;" style="rounded=0;whiteSpace=wrap;html=1;" vertex="1" parent="WIyWlLk6GJQsqaUBKTNV-1">
          <mxGeometry x="292" y="650" width="82" height="60" as="geometry" />
        </mxCell>
        <mxCell id="bhBOAPFcjr5mr_RWAnfO-1" value="&lt;font style=&quot;font-size: 16px;&quot;&gt;jump(toPosition)&lt;/font&gt;" style="rounded=0;whiteSpace=wrap;html=1;" vertex="1" parent="WIyWlLk6GJQsqaUBKTNV-1">
          <mxGeometry x="292" y="1045" width="140" height="60" as="geometry" />
        </mxCell>
        <mxCell id="bhBOAPFcjr5mr_RWAnfO-12" value="&lt;font style=&quot;font-size: 16px;&quot;&gt;draw(toPosition)&lt;/font&gt;" style="rounded=0;whiteSpace=wrap;html=1;" vertex="1" parent="WIyWlLk6GJQsqaUBKTNV-1">
          <mxGeometry x="292" y="817.5" width="140" height="60" as="geometry" />
        </mxCell>
      </root>
    </mxGraphModel>
  </diagram>
</mxfile>
